<svg width="28" height="28" viewBox="0 0 28 28" fill="none" xmlns="http://www.w3.org/2000/svg">
<path fill-rule="evenodd" clip-rule="evenodd" d="M0.666992 6.00033C0.666992 4.58584 1.2289 3.22928 2.22909 2.22909C3.22928 1.2289 4.58584 0.666992 6.00033 0.666992H22.0003C23.4148 0.666992 24.7714 1.2289 25.7716 2.22909C26.7718 3.22928 27.3337 4.58584 27.3337 6.00033V22.0003C27.3337 23.4148 26.7718 24.7714 25.7716 25.7716C24.7714 26.7718 23.4148 27.3337 22.0003 27.3337H6.00033C4.58584 27.3337 3.22928 26.7718 2.22909 25.7716C1.2289 24.7714 0.666992 23.4148 0.666992 22.0003V6.00033ZM6.00033 3.33366C5.29308 3.33366 4.6148 3.61461 4.11471 4.11471C3.61461 4.6148 3.33366 5.29308 3.33366 6.00033V22.0003C3.33366 22.7076 3.61461 23.3858 4.11471 23.8859C4.6148 24.386 5.29308 24.667 6.00033 24.667H14.0003V15.3337H12.667C12.3134 15.3337 11.9742 15.1932 11.7242 14.9431C11.4741 14.6931 11.3337 14.3539 11.3337 14.0003C11.3337 13.6467 11.4741 13.3076 11.7242 13.0575C11.9742 12.8075 12.3134 12.667 12.667 12.667H14.0003V10.667C14.0003 9.42932 14.492 8.24233 15.3672 7.36716C16.2423 6.49199 17.4293 6.00033 18.667 6.00033H19.467C19.8206 6.00033 20.1597 6.1408 20.4098 6.39085C20.6598 6.6409 20.8003 6.98004 20.8003 7.33366C20.8003 7.68728 20.6598 8.02642 20.4098 8.27647C20.1597 8.52652 19.8206 8.66699 19.467 8.66699H18.667C18.4043 8.66699 18.1443 8.71872 17.9016 8.81923C17.659 8.91974 17.4385 9.06706 17.2528 9.25278C17.0671 9.4385 16.9197 9.65897 16.8192 9.90163C16.7187 10.1443 16.667 10.4043 16.667 10.667V12.667H19.467C19.8206 12.667 20.1597 12.8075 20.4098 13.0575C20.6598 13.3076 20.8003 13.6467 20.8003 14.0003C20.8003 14.3539 20.6598 14.6931 20.4098 14.9431C20.1597 15.1932 19.8206 15.3337 19.467 15.3337H16.667V24.667H22.0003C22.7076 24.667 23.3858 24.386 23.8859 23.8859C24.386 23.3858 24.667 22.7076 24.667 22.0003V6.00033C24.667 5.29308 24.386 4.6148 23.8859 4.11471C23.3858 3.61461 22.7076 3.33366 22.0003 3.33366H6.00033Z" fill="#C4B6B6"/>
</svg>
