<svg width="28" height="29" viewBox="0 0 28 29" fill="none" xmlns="http://www.w3.org/2000/svg">
<path fill-rule="evenodd" clip-rule="evenodd" d="M7.66449 3.42699C9.24049 1.55499 11.4725 0.666992 14.0005 0.666992C16.5872 0.666992 18.8058 1.71233 20.3525 3.61766C21.7258 5.31099 22.5032 7.59632 22.6445 10.2537L22.7672 10.2723L22.7938 10.2763C23.0205 10.3083 23.2912 10.3483 23.5725 10.403C24.6138 10.6043 26.3912 11.1137 27.0032 13.0217C27.3098 13.9803 27.1565 14.8683 26.6192 15.5723C26.1565 16.179 25.4952 16.5297 25.0218 16.7417C24.7872 16.8483 24.5525 16.939 24.3552 17.015C24.8165 18.263 25.6192 19.547 26.5072 20.7097C27.3432 21.8057 27.1218 23.1937 26.6898 24.099C26.2565 25.0057 25.3205 26.0417 23.9578 26.1003C23.1872 26.1337 22.3778 26.2137 21.5725 26.3603C21.2085 26.427 20.7792 26.5723 20.2458 26.7923C19.9272 26.923 19.6352 27.0537 19.3205 27.1937C19.0698 27.3057 18.8058 27.423 18.5005 27.5537C17.2472 28.0923 15.7072 28.667 14.0005 28.667C12.2938 28.667 10.7538 28.0923 9.50049 27.5537C9.19515 27.423 8.92982 27.3057 8.68049 27.1937C8.37394 27.0556 8.06546 26.9218 7.75515 26.7923C7.22182 26.5723 6.79249 26.4257 6.42849 26.359C5.62315 26.2123 4.81382 26.1337 4.04182 26.1003C2.68049 26.0417 1.74315 25.0057 1.31115 24.099C0.879154 23.1937 0.657821 21.8057 1.49382 20.7097C2.38715 19.539 3.19382 18.2457 3.65382 16.9897C3.45197 16.9103 3.25234 16.8253 3.05515 16.735C2.59382 16.519 1.96715 16.1737 1.50449 15.595C0.988488 14.947 0.760488 14.111 0.963154 13.1537C1.39515 11.1043 3.32315 10.5937 4.34182 10.4017C4.63115 10.3483 4.91249 10.3083 5.14849 10.275L5.19515 10.2683L5.35515 10.2457C5.48715 7.41233 6.25915 5.09499 7.66449 3.42699ZM9.70449 5.14433C8.68715 6.35099 8.00049 8.29099 8.00049 11.1443V11.283L7.97115 11.4203C7.82315 12.119 7.28582 12.4457 7.01915 12.571C6.73915 12.703 6.43649 12.7683 6.22315 12.8083C6.01515 12.847 5.78315 12.879 5.57649 12.907L5.51515 12.9163C5.28723 12.9465 5.06006 12.982 4.83382 13.023C3.81382 13.2137 3.62049 13.467 3.57115 13.703C3.53649 13.8723 3.56715 13.907 3.58449 13.9257L3.58982 13.931C3.66049 14.0203 3.83115 14.1537 4.18582 14.319C4.35115 14.3963 4.52582 14.467 4.71915 14.5457L4.76715 14.5643C4.93649 14.631 5.13782 14.7123 5.31515 14.7963C5.48982 14.8763 5.78182 15.023 6.02982 15.2603C6.31782 15.5363 6.66582 16.075 6.49649 16.7857C6.01115 18.827 4.78582 20.7923 3.61515 22.3257C3.59734 22.3705 3.59004 22.4189 3.59382 22.467C3.59382 22.5937 3.62982 22.767 3.71649 22.9497C3.80449 23.1323 3.91649 23.2723 4.02049 23.3563C4.10582 23.4257 4.15382 23.4363 4.15915 23.4363C5.02715 23.4737 5.95915 23.5643 6.90582 23.7363C7.54982 23.8537 8.18582 24.0857 8.77249 24.3283C9.09649 24.4617 9.46849 24.627 9.82982 24.787C10.0818 24.899 10.3285 25.0083 10.5498 25.103C11.7485 25.6163 12.8672 26.0003 14.0005 26.0003C15.1338 26.0003 16.2538 25.6163 17.4512 25.103C17.6725 25.0083 17.9192 24.8977 18.1712 24.787C18.5312 24.627 18.9045 24.4617 19.2272 24.3283C19.8138 24.0857 20.4498 23.8537 21.0938 23.7363C22.0405 23.563 22.9738 23.4737 23.8405 23.4363C23.8485 23.4363 23.8952 23.4257 23.9805 23.3563C24.1094 23.2438 24.213 23.1052 24.2845 22.9497C24.3593 22.7993 24.4011 22.6348 24.4072 22.467C24.4072 22.343 24.3765 22.3137 24.3872 22.3283C23.2165 20.795 21.9898 18.8283 21.5032 16.7857C21.3232 16.0257 21.7352 15.479 22.0192 15.2257C22.2725 15.0017 22.5685 14.8617 22.7485 14.783C22.9285 14.703 23.1312 14.627 23.3045 14.5617L23.3685 14.5363C23.5725 14.4603 23.7552 14.3897 23.9272 14.311C24.2872 14.1497 24.4405 14.0257 24.4925 13.963C24.4878 13.9199 24.4784 13.8774 24.4645 13.8363C24.3432 13.4577 24.0005 13.2017 23.0645 13.0203C22.8525 12.9803 22.6378 12.9483 22.4112 12.9137L22.3605 12.907C22.1495 12.8783 21.9392 12.8446 21.7298 12.8057C21.4582 12.7581 21.1942 12.6747 20.9445 12.5577C20.6645 12.419 20.1712 12.087 20.0298 11.4203L20.0005 11.283V11.143C20.0005 8.54299 19.3245 6.58299 18.2818 5.29899C17.2618 4.04033 15.8152 3.33366 14.0005 3.33366C12.1272 3.33366 10.6938 3.96833 9.70315 5.14433H9.70449Z" fill="#C4B6B6"/>
</svg>
